# xmcd CD database file
#
# Track frame offsets:
#	150
#	16155
#	32594
#	48282
#	61289
#	79283
#	95882
#	111758
#	124983
#	142278
#	163303
#
# Disc length: 2338 seconds
#
# Revision: 0
# Processed by: cddbd v1.5.2PL0 Copyright (c) Steve Scherf et al.
# Submitted via: CDex 1.51
#
DISCID=9c09200b
DTITLE=ZAZ - ZAZ
DYEAR=2010
DGENRE=Jazz
TTITLE0=Les passants
TTITLE1=Je veux
TTITLE2=Le long de la route
TTITLE3=La fée
TTITLE4=Trop sensible
TTITLE5=Prends garde à ta langue
TTITLE6=Ni oui ni non
TTITLE7=Port Coton
TTITLE8=J'aime à nouveau
TTITLE9=Dans ma rue
TTITLE10=Eblouie par la nuit
EXTD=YEAR: 2010
EXTT0=
EXTT1=
EXTT2=
EXTT3=
EXTT4=
EXTT5=
EXTT6=
EXTT7=
EXTT8=
EXTT9=
EXTT10=
PLAYORDER=
